<?xml version="1.0" standalone="no"?>
<!DOCTYPE svg PUBLIC "-//W3C//DTD SVG 20010904//EN"
 "http://www.w3.org/TR/2001/REC-SVG-20010904/DTD/svg10.dtd">
<svg version="1.0" xmlns="http://www.w3.org/2000/svg"
 width="431.000000pt" height="431.000000pt" viewBox="0 0 431.000000 431.000000"
 preserveAspectRatio="xMidYMid meet">
<metadata>
Created by potrace 1.11, written by Peter Selinger 2001-2013
</metadata>
<g transform="translate(0.000000,431.000000) scale(0.100000,-0.100000)"
fill="#000000" stroke="none">
<path d="M1500 3891 c-41 -40 -50 -55 -50 -84 l0 -35 -49 13 -49 13 -51 -52
-51 -52 0 -133 0 -133 -27 6 c-16 3 -37 8 -48 11 -15 4 -34 -8 -72 -46 l-53
-51 0 -299 0 -298 53 -15 c28 -9 117 -33 197 -54 l145 -39 3 -37 c2 -21 -1
-35 -6 -32 -5 3 -24 8 -43 11 -18 3 -36 8 -38 11 -3 2 -29 -19 -58 -48 -43
-42 -53 -59 -53 -85 0 -36 -8 -39 -59 -22 -32 11 -35 10 -87 -42 -44 -44 -54
-59 -54 -87 0 -26 -4 -33 -14 -29 -8 3 -30 9 -50 12 -32 7 -39 3 -86 -41 l-50
-49 0 -402 c0 -374 1 -402 18 -407 9 -2 99 -26 200 -52 l182 -48 0 -134 0
-134 -36 6 c-19 4 -41 9 -48 12 -7 3 -36 -19 -65 -48 l-51 -53 2 -99 3 -99
160 -43 c88 -23 263 -69 389 -103 125 -33 233 -61 239 -61 5 0 32 22 59 50
l48 49 0 235 0 234 68 -18 c37 -10 104 -28 149 -40 l83 -22 2 -301 3 -301 180
-48 c99 -27 239 -64 310 -83 72 -19 169 -45 217 -59 l86 -24 51 52 51 52 0
101 0 101 -47 11 c-27 7 -72 18 -100 27 l-53 15 0 135 c0 124 1 135 18 130 9
-3 75 -21 147 -41 l129 -35 53 52 53 53 -2 400 -3 400 -97 25 -98 24 0 101 0
101 -252 68 c-139 37 -273 73 -298 79 -42 12 -45 15 -48 51 -2 21 0 36 5 33 4
-3 70 -21 146 -41 154 -41 140 -43 209 27 29 29 38 46 38 72 0 19 1 35 3 35 1
0 23 -7 48 -14 l46 -14 52 52 c42 43 51 58 51 88 l0 36 47 -14 47 -14 53 52
54 53 -3 100 -3 99 -97 26 -98 25 0 101 0 101 -142 37 c-289 77 -258 65 -258
103 0 40 -12 41 175 -11 l120 -34 53 51 52 51 0 101 0 102 -182 48 c-101 27
-235 63 -298 79 l-115 31 -3 101 -3 101 -492 132 c-271 72 -495 131 -499 131
-4 0 -30 -22 -58 -49z"/>
</g>
</svg>
